<svg xmlns="http://www.w3.org/2000/svg" viewBox="0 0 41.4157 56.8082"><defs><style>.cls-1{fill:none;stroke:#000;stroke-miterlimit:10;stroke-width:1.7933px;}.cls-2{fill:#fff;}</style></defs><title>Asset 11</title><g id="Layer_2" data-name="Layer 2"><g id="Calque_1" data-name="Calque 1"><rect class="cls-1" x="0.8966" y="0.8966" width="10" height="50"/><path d="M25.1235,49.7248a1.674,1.674,0,0,1-1.6729-1.6718.9165.9165,0,1,0-1.833,0,1.6739,1.6739,0,0,1-1.6728,1.6718h-7.57a1.674,1.674,0,0,1-1.6729-1.6718,11.8325,11.8325,0,1,1,23.665,0,1.6737,1.6737,0,0,1-1.6718,1.6718ZM30.8569,46.38a8.4889,8.4889,0,0,0-16.6446,0h4.4024a4.2614,4.2614,0,0,1,7.8389,0Z"/><path class="cls-2" d="M22.5343,37.22A10.8447,10.8447,0,0,1,33.3668,48.0526a.6726.6726,0,0,1-.6725.6725h-7.571a.6726.6726,0,0,1-.6725-.6725,1.9165,1.9165,0,0,0-3.833,0,.6727.6727,0,0,1-.6726.6725h-7.571a.6726.6726,0,0,1-.6725-.6725A10.8448,10.8448,0,0,1,22.5343,37.22M13.07,47.38h6.2721a3.262,3.262,0,0,1,6.3837,0h6.2721a9.4878,9.4878,0,0,0-18.9279,0m9.464-12.16A12.8472,12.8472,0,0,0,9.7017,48.0526a2.6756,2.6756,0,0,0,2.6725,2.6725h7.571a2.6774,2.6774,0,0,0,2.5891-2.0084,2.6773,2.6773,0,0,0,2.589,2.0084h7.571a2.6756,2.6756,0,0,0,2.6725-2.6725A12.8471,12.8471,0,0,0,22.5343,35.22ZM15.54,45.38a7.487,7.487,0,0,1,13.988,0H27.0638a5.2567,5.2567,0,0,0-9.059,0Z"/><path d="M6.3256,55.8078A1.6739,1.6739,0,0,1,4.6528,54.136v-6.16A17.8807,17.8807,0,0,1,35.1782,35.3323a17.7607,17.7607,0,0,1,5.2373,12.6435v6.16a1.674,1.674,0,0,1-1.6729,1.6718Zm30.7451-3.3447V49.5452h-.289a1.6729,1.6729,0,1,1,0-3.3458h.1806a14.4367,14.4367,0,0,0-.4746-2.3017l-.1767.0732a1.69,1.69,0,0,1-.6406.127,1.6725,1.6725,0,0,1-.64-3.2178l.1514-.0625A14.6245,14.6245,0,0,0,33.8637,38.88l-.1211.1211a1.6724,1.6724,0,1,1-2.3652-2.3652l.1064-.1065a14.4916,14.4916,0,0,0-1.9521-1.291l-.0635.1533a1.6724,1.6724,0,0,1-3.0908-1.2783l.0586-.1416a14.53,14.53,0,0,0-2.2979-.4433v.166a1.6729,1.6729,0,0,1-3.3457,0v-.15A14.3617,14.3617,0,0,0,18.5,34.009l.0644.1553a1.6754,1.6754,0,0,1-.9062,2.1855,1.65,1.65,0,0,1-.6387.128,1.67,1.67,0,0,1-1.5459-1.0313l-.0576-.1406a14.5664,14.5664,0,0,0-1.9385,1.31l.1172.1172a1.6728,1.6728,0,0,1-2.3653,2.3662l-.1113-.1114a14.6061,14.6061,0,0,0-1.2988,1.9512l.167.0693a1.6723,1.6723,0,1,1-1.28,3.09l-.1631-.0674a14.3981,14.3981,0,0,0-.4511,2.3076h.1953a1.6724,1.6724,0,1,1,0,3.3447H7.9975v.3711H30.725a1.6727,1.6727,0,0,1,1.501,2.4092Z"/><path class="cls-2" d="M22.5343,31.0942A16.8817,16.8817,0,0,1,39.4157,47.9757v6.16a.6726.6726,0,0,1-.6726.6725H6.3254a.6725.6725,0,0,1-.6725-.6725v-6.16A16.8817,16.8817,0,0,1,22.5343,31.0942m-.0691,3.2725a.6727.6727,0,0,1-.6725-.6726V32.4576a15.433,15.433,0,0,0-4.63.9394l.4766,1.1506a.6726.6726,0,1,1-1.2427.5148l-.4738-1.144a15.5956,15.5956,0,0,0-3.916,2.6423l.88.88a.6725.6725,0,1,1-.9511.9511l-.8773-.8772a15.594,15.594,0,0,0-2.6208,3.9347l1.1649.4827a.6725.6725,0,1,1-.5147,1.2426l-1.164-.4822a15.4388,15.4388,0,0,0-.9116,4.6457H8.2871a.6726.6726,0,0,1,0,1.3451H6.998v2.3716H30.7246a.6726.6726,0,1,1,0,1.3451H6.998v1.0637H38.0706V48.545H36.7812a.6726.6726,0,0,1,0-1.3451h1.27a15.4359,15.4359,0,0,0-.9542-4.6373l-1.1689.4843a.6726.6726,0,0,1-.5148-1.2427l1.1594-.48a15.5941,15.5941,0,0,0-2.6564-3.9108l-.8808.8807a.6725.6725,0,0,1-.9511-.9511l.8757-.8758A15.59,15.59,0,0,0,29.02,33.86L28.5441,35.01a.6726.6726,0,0,1-1.2428-.5147l.4741-1.1447a15.4435,15.4435,0,0,0-4.6376-.8978v1.2417a.6727.6727,0,0,1-.6726.6726m.0691-5.2725A18.8818,18.8818,0,0,0,3.6529,47.9757v6.16a2.6755,2.6755,0,0,0,2.6725,2.6725H38.7431a2.6755,2.6755,0,0,0,2.6726-2.6725v-6.16A18.8816,18.8816,0,0,0,22.5343,29.0942Zm-.0691,7.2725a2.6772,2.6772,0,0,0,2.4929-1.7088q.1464.0266.2924.0563a2.6736,2.6736,0,0,0,4.6073,1.8832q.1239.08.2461.1628a2.6755,2.6755,0,0,0,3.5453,3.5q.0834.12.1642.2412a2.6739,2.6739,0,0,0,1.8573,4.5967c.0305,0,.0608-.0005.0911-.0016q.0306.1405.0582.2819a2.6729,2.6729,0,0,0,.2506,5.0705v1.014H33.3843a2.6764,2.6764,0,0,0-2.66-2.4088H10.7472a2.6728,2.6728,0,0,0-1.5228-3.5471q.0261-.1413.0553-.2824l.0652.0008a2.6747,2.6747,0,0,0,1.8382-4.615q.08-.1224.1617-.2427a2.6755,2.6755,0,0,0,3.512-3.5336q.1215-.0838.2446-.1651a2.6754,2.6754,0,0,0,4.59-1.9291q.1447-.0312.29-.0588a2.6767,2.6767,0,0,0,2.4836,1.6854Z"/><path d="M33.1332,53.4a1.6729,1.6729,0,0,1,0-3.3457h.5508a1.6729,1.6729,0,1,1,0,3.3457Z"/><path class="cls-2" d="M33.6842,51.0542a.6726.6726,0,1,1,0,1.3451h-.5506a.6726.6726,0,1,1,0-1.3451h.5506m0-2h-.5506a2.6726,2.6726,0,1,0,0,5.3451h.5506a2.6726,2.6726,0,1,0,0-5.3451Z"/><path d="M25.1235,48.7746a.7226.7226,0,0,1-.7227-.7216,1.8667,1.8667,0,1,0-3.7334,0,.7226.7226,0,0,1-.7226.7216h-7.57a.7226.7226,0,0,1-.7227-.7216,10.8823,10.8823,0,1,1,21.7646,0,.7218.7218,0,0,1-.7216.7216Zm-2.5889-10.16a9.465,9.465,0,0,0-9.4141,8.77l6.2217-.0537a3.2374,3.2374,0,0,1,3.1924-2.5889,3.3251,3.3251,0,0,1,3.24,2.628l6.2237-.0391A9.5431,9.5431,0,0,0,22.5346,38.6145Z"/><path d="M22.5343,37.22A10.8447,10.8447,0,0,1,33.3668,48.0526a.6726.6726,0,0,1-.6725.6725h-7.571a.6726.6726,0,0,1-.6725-.6725,1.9165,1.9165,0,0,0-3.833,0,.6727.6727,0,0,1-.6726.6725h-7.571a.6726.6726,0,0,1-.6725-.6725A10.8448,10.8448,0,0,1,22.5343,37.22M13.07,47.38h6.2721a3.262,3.262,0,0,1,6.3837,0h6.2721a9.4878,9.4878,0,0,0-18.9279,0m9.464-10.26A10.9449,10.9449,0,0,0,11.6017,48.0526a.7734.7734,0,0,0,.7725.7725h7.571a.7735.7735,0,0,0,.7726-.7725,1.8165,1.8165,0,0,1,3.633,0,.7734.7734,0,0,0,.7725.7725h7.571a.7734.7734,0,0,0,.7725-.7725A10.9449,10.9449,0,0,0,22.5343,37.12ZM13.1782,47.28a9.3879,9.3879,0,0,1,18.7121,0H25.8062a3.362,3.362,0,0,0-6.5439,0Z"/><path d="M6.3256,54.8577a.7227.7227,0,0,1-.7226-.7217v-6.16A16.9305,16.9305,0,0,1,34.5063,36.0041a16.8137,16.8137,0,0,1,4.959,11.9717v6.16a.7227.7227,0,0,1-.7227.7217Zm.7217-1.3946,31.0234-.05-.05-4.8681-1.2392.05a.7227.7227,0,1,1,0-1.4454h1.27A17.2114,17.2114,0,0,0,37.05,42.58l-1.1025.5127a.7468.7468,0,0,1-.2773.0547.7222.7222,0,0,1-.2764-1.39l1.1592-.4794a17.3738,17.3738,0,0,0-2.6739-3.8311l-.8086.8818a.7223.7223,0,0,1-1.0214-1.0215l.8759-.8759A17.4914,17.4914,0,0,0,29,33.9045L28.59,35.03a.7226.7226,0,0,1-1.335-.5537L27.73,33.33a17.3312,17.3312,0,0,0-4.5937-.8281l.0517,1.1924a.7227.7227,0,0,1-1.4453,0V32.4573a17.2362,17.2362,0,0,0-4.5615.9863l.5049,1.084a.7237.7237,0,0,1-.3906.9443.71.71,0,0,1-.2764.0557.72.72,0,0,1-.668-.4453l-.4736-1.1446a17.3717,17.3717,0,0,0-3.836,2.66l.8809.8066a.7249.7249,0,0,1,0,1.0225.7239.7239,0,0,1-1.0215,0l-.8779-.8779a17.4144,17.4144,0,0,0-2.54,3.9209l1.14.416a.7224.7224,0,1,1-.5547,1.334l-1.164-.4825A17.3207,17.3207,0,0,0,7.062,47.34l1.2246-.0518a.7222.7222,0,1,1,0,1.4444H6.9975l.05,2.3212,23.6777-.05a.7227.7227,0,0,1,0,1.4453H7.0473Z"/><path d="M22.5343,31.0942A16.8817,16.8817,0,0,1,39.4157,47.9757v6.16a.6726.6726,0,0,1-.6726.6725H6.3254a.6725.6725,0,0,1-.6725-.6725v-6.16A16.8817,16.8817,0,0,1,22.5343,31.0942m-.0691,3.2725a.6727.6727,0,0,1-.6725-.6726V32.4576a15.433,15.433,0,0,0-4.63.9394l.4766,1.1506a.6726.6726,0,1,1-1.2427.5148l-.4738-1.144a15.5956,15.5956,0,0,0-3.916,2.6423l.88.88a.6725.6725,0,1,1-.9511.9511l-.8773-.8772a15.594,15.594,0,0,0-2.6208,3.9347l1.1649.4827a.6725.6725,0,1,1-.5147,1.2426l-1.164-.4822a15.4388,15.4388,0,0,0-.9116,4.6457H8.2871a.6726.6726,0,0,1,0,1.3451H6.998v2.3716H30.7246a.6726.6726,0,1,1,0,1.3451H6.998v1.0637H38.0706V48.545H36.7812a.6726.6726,0,0,1,0-1.3451h1.27a15.4359,15.4359,0,0,0-.9542-4.6373l-1.1689.4843a.6726.6726,0,0,1-.5148-1.2427l1.1594-.48a15.5941,15.5941,0,0,0-2.6564-3.9108l-.8808.8807a.6725.6725,0,0,1-.9511-.9511l.8757-.8758A15.59,15.59,0,0,0,29.02,33.86L28.5441,35.01a.6726.6726,0,0,1-1.2428-.5147l.4741-1.1447a15.4435,15.4435,0,0,0-4.6376-.8978v1.2417a.6727.6727,0,0,1-.6726.6726m.0691-3.3725A16.9818,16.9818,0,0,0,5.5529,47.9757v6.16a.7734.7734,0,0,0,.7725.7725H38.7431a.7735.7735,0,0,0,.7726-.7725v-6.16A16.9818,16.9818,0,0,0,22.5343,30.9942Zm-.0691,3.4725a.7735.7735,0,0,0,.7726-.7726V32.5566a15.3427,15.3427,0,0,1,4.405.8526l-.4338,1.0473a.7726.7726,0,1,0,1.4275.5915l.4362-1.0531a15.4606,15.4606,0,0,1,3.742,2.4759l-.8012.8013a.7725.7725,0,1,0,1.0926,1.0925l.8071-.8071a15.4751,15.4751,0,0,1,2.5234,3.7145l-1.0617.44a.7725.7725,0,1,0,.5912,1.4275l1.0729-.4445A15.332,15.332,0,0,1,37.9455,47.1H36.7812a.7725.7725,0,1,0,0,1.545h1.1894v4.7181H7.098v-.8637H30.7246a.7726.7726,0,1,0,0-1.5451H7.098V48.7827H8.2871a.7725.7725,0,0,0,0-1.545h-1.17a15.3358,15.3358,0,0,1,.8658-4.4133l1.067.4421a.7725.7725,0,1,0,.5913-1.4274l-1.0682-.4426a15.4676,15.4676,0,0,1,2.4893-3.7373l.8031.8028A.7725.7725,0,1,0,12.9575,37.37l-.8057-.8057a15.4684,15.4684,0,0,1,3.7193-2.51l.4335,1.0466a.7725.7725,0,1,0,1.4274-.5914l-.4366-1.0542a15.3366,15.3366,0,0,1,4.3973-.8922v1.1312a.7734.7734,0,0,0,.7725.7726Z"/><path d="M33.1332,52.4494a.7227.7227,0,0,1,0-1.4453h.5508a.7227.7227,0,1,1,0,1.4453Z"/><path d="M33.6842,51.0542a.6726.6726,0,1,1,0,1.3451h-.5506a.6726.6726,0,1,1,0-1.3451h.5506m0-.1h-.5506a.7726.7726,0,1,0,0,1.5451h.5506a.7726.7726,0,1,0,0-1.5451Z"/></g></g></svg>