<svg xmlns="http://www.w3.org/2000/svg" viewBox="0 0 31.1587 57.8083"><defs><style>.cls-1{fill:none;stroke:#000;stroke-miterlimit:10;stroke-width:1.7933px;}.cls-2{fill:#fff;}</style></defs><title>Asset 6</title><g id="Layer_2" data-name="Layer 2"><g id="Calque_1" data-name="Calque 1"><rect class="cls-1" x="0.8966" y="0.8966" width="10" height="50"/><rect class="cls-1" x="0.8966" y="0.8966" width="10" height="50"/><line class="cls-1" x1="4.23" y1="0.8966" x2="4.23" y2="50.8966"/><line class="cls-1" x1="0.8966" y1="0.8966" x2="0.8966" y2="50.8966"/><line class="cls-1" x1="10.8966" y1="0.8966" x2="10.8966" y2="50.8966"/><line class="cls-1" x1="7.5633" y1="0.8966" x2="7.5633" y2="50.8966"/><path d="M18.5714,56.8087a11.6037,11.6037,0,0,1-8.1866-3.3593,11.4368,11.4368,0,0,1-2.208-13.2246,11.6838,11.6838,0,0,1,3.3028-4.003,7.9245,7.9245,0,0,0,1.2656-1.2285,7.6126,7.6126,0,0,0,1.25-2.166,5.579,5.579,0,0,0,.2773-2.1885l-.0664-1.4433a1.2433,1.2433,0,0,1,1.2412-1.2989,1.2317,1.2317,0,0,1,.629.1729l1.2392.7285a11.72,11.72,0,0,1,4.4219,4.6865,15.3462,15.3462,0,0,1,1.5117,3.97l.3731-1.07.1865-.2314a1.2423,1.2423,0,0,1,1.748-.0908l.8848.8115A11.4764,11.4764,0,0,1,23.0723,55.91,11.6251,11.6251,0,0,1,18.5714,56.8087Zm-.9063-22.26A11.6747,11.6747,0,0,1,15.87,37.5646a11.4624,11.4624,0,0,1-1.93,1.8691,7.5027,7.5027,0,0,0-2.1416,2.5948A7.383,7.383,0,0,0,13.23,50.5714a7.6124,7.6124,0,0,0,10.6836-.0009,7.3792,7.3792,0,0,0,1.5644-8.253c-.06-.1347-.124-.2676-.1914-.3984-.0771.0918-.1553.1826-.2363.2734A3.1932,3.1932,0,0,1,22.82,43.26c-.0547.0029-.1162.0049-.1777.0049a3.2248,3.2248,0,0,1-3.211-3.4326A8.6822,8.6822,0,0,0,18.17,35.383,9.2841,9.2841,0,0,0,17.6651,34.549Z"/><path class="cls-2" d="M15.4468,28.8966a.2324.2324,0,0,1,.1192.033l1.2422.731a10.7179,10.7179,0,0,1,4.0457,4.2922,11.6168,11.6168,0,0,1,1.6152,6.076.177.177,0,0,0,.06.1444.1666.1666,0,0,0,.1148.0458l.0146-.0007a.1877.1877,0,0,0,.1232-.06,6.39,6.39,0,0,0,1.3265-2.13l.3911-1.122a.2433.2433,0,0,1,.391-.0992l.8753.8031a10.4772,10.4772,0,0,1-3.0771,17.3766,10.6484,10.6484,0,0,1-11.6015-2.25,10.5111,10.5111,0,0,1-2.2709-3.3357,10.353,10.353,0,0,1-.8332-4.0908A10.4612,10.4612,0,0,1,9.0719,40.67a10.6071,10.6071,0,0,1,3.017-3.6546,8.8913,8.8913,0,0,0,1.4287-1.3866,8.5785,8.5785,0,0,0,1.4138-2.4515,6.5614,6.5614,0,0,0,.34-2.5838l-.0663-1.4437a.2427.2427,0,0,1,.2418-.2527M18.5709,53.76a8.5281,8.5281,0,0,0,6.0459-2.4785,8.3871,8.3871,0,0,0,.7219-11.1262,9.8913,9.8913,0,0,1-1.0347,1.3716,2.2,2.2,0,0,1-1.5341.7339q-.0637.0036-.1271.0037a2.2247,2.2247,0,0,1-2.213-2.3679,9.6189,9.6189,0,0,0-1.3777-4.9841,9.1171,9.1171,0,0,0-1.8408-2.4184,7.2163,7.2163,0,0,1-.3639,1.3987,10.6556,10.6556,0,0,1-1.7506,3.038,10.517,10.517,0,0,1-1.7627,1.7085,8.5079,8.5079,0,0,0-2.43,2.9447,8.3821,8.3821,0,0,0,1.6212,9.6975A8.5281,8.5281,0,0,0,18.5709,53.76M15.447,26.8966h0a2.2425,2.2425,0,0,0-2.2395,2.3472l.066,1.4409a4.6594,4.6594,0,0,1-.2156,1.7925,6.5834,6.5834,0,0,1-1.0858,1.8818,6.8975,6.8975,0,0,1-1.1065,1.0738,12.6724,12.6724,0,0,0-3.5813,4.34A12.5365,12.5365,0,0,0,5.9831,45.31a12.4143,12.4143,0,0,0,3.6977,8.8495A12.68,12.68,0,0,0,23.4586,56.833a12.5764,12.5764,0,0,0,6.7066-6.6439,12.4465,12.4465,0,0,0-3.0487-14.0536l-.8739-.8018a2.2426,2.2426,0,0,0-2.6744-.2645,18.8817,18.8817,0,0,0-.95-2.0573,12.69,12.69,0,0,0-4.794-5.0738L16.58,27.2059a2.23,2.23,0,0,0-1.1333-.3093ZM18.5709,51.76a6.5458,6.5458,0,0,1-4.6383-1.8993,6.3822,6.3822,0,0,1-1.2381-7.386,6.49,6.49,0,0,1,1.8575-2.2489,12.5269,12.5269,0,0,0,2.0949-2.0313,12.7631,12.7631,0,0,0,1.057-1.4961,6.7909,6.7909,0,0,1,.73,3.0718,4.2246,4.2246,0,0,0,4.209,4.4943q.1209,0,.2422-.007a4.154,4.154,0,0,0,2.0017-.6308,6.3832,6.3832,0,0,1-1.6775,6.234A6.5458,6.5458,0,0,1,18.5709,51.76Z"/></g></g></svg>