<svg xmlns="http://www.w3.org/2000/svg" viewBox="0 0 41.1587 57.8083"><defs><style>.cls-1{fill:none;stroke:#000;stroke-miterlimit:10;stroke-width:1.7933px;}.cls-2{fill:#fff;}</style></defs><title>Asset 7</title><g id="Layer_2" data-name="Layer 2"><g id="Calque_1" data-name="Calque 1"><rect class="cls-1" x="10.8966" y="0.8966" width="10" height="50"/><rect class="cls-1" x="0.8966" y="0.8966" width="10" height="50"/><path d="M28.5709,56.8081a11.61,11.61,0,0,1-8.1866-3.36,11.4354,11.4354,0,0,1-2.2085-13.2227A11.6833,11.6833,0,0,1,21.48,36.2222a7.9131,7.9131,0,0,0,1.2662-1.23,7.5757,7.5757,0,0,0,1.2485-2.165,5.5578,5.5578,0,0,0,.2778-2.1885l-.0659-1.4444a1.239,1.239,0,0,1,1.8672-1.1269l1.2422.7314a11.7092,11.7092,0,0,1,4.4219,4.6846A15.3544,15.3544,0,0,1,33.25,37.4546l.3716-1.0664.1811-.2285a1.2431,1.2431,0,0,1,1.75-.1016l.8892.8164A11.4753,11.4753,0,0,1,33.0728,55.91,11.6253,11.6253,0,0,1,28.5709,56.8081Zm-.9058-22.26A11.6632,11.6632,0,0,1,25.87,37.565a11.5349,11.5349,0,0,1-1.9287,1.8681A7.4885,7.4885,0,0,0,21.8,42.0279a7.3816,7.3816,0,0,0,1.43,8.5439,7.6123,7.6123,0,0,0,10.6836-.001,7.381,7.381,0,0,0,1.5645-8.2539c-.06-.1338-.1231-.2666-.1909-.3974-.0772.0918-.1563.1826-.2373.2734a3.19,3.19,0,0,1-2.23,1.0664c-.0537.0029-.1157.0049-.1773.0049a3.224,3.224,0,0,1-3.21-3.4317A8.6751,8.6751,0,0,0,28.17,35.3833,9.3247,9.3247,0,0,0,27.6651,34.5484Z"/><path class="cls-2" d="M25.4468,28.8966a.2326.2326,0,0,1,.1192.033l1.2423.731a10.719,10.719,0,0,1,4.0456,4.2922,11.6179,11.6179,0,0,1,1.6152,6.076.177.177,0,0,0,.06.1444.1662.1662,0,0,0,.1148.0458l.0145-.0007a.1881.1881,0,0,0,.1234-.06,6.3928,6.3928,0,0,0,1.3265-2.13l.391-1.122a.2433.2433,0,0,1,.391-.0992l.8753.8031a10.4772,10.4772,0,0,1-3.0771,17.3766,10.6484,10.6484,0,0,1-11.6015-2.25,10.51,10.51,0,0,1-2.2709-3.3358,10.3522,10.3522,0,0,1-.8332-4.0907A10.46,10.46,0,0,1,19.072,40.67a10.6057,10.6057,0,0,1,3.0169-3.6546,8.8954,8.8954,0,0,0,1.4287-1.3866,8.5759,8.5759,0,0,0,1.4137-2.4515,6.5559,6.5559,0,0,0,.34-2.5838l-.0661-1.4437a.2425.2425,0,0,1,.2417-.2527M28.5709,53.76a8.5281,8.5281,0,0,0,6.0459-2.4785,8.3871,8.3871,0,0,0,.7219-11.1262,9.8913,9.8913,0,0,1-1.0347,1.3716,2.2,2.2,0,0,1-1.5341.7339q-.0637.0036-.1271.0037a2.2247,2.2247,0,0,1-2.213-2.3679,9.62,9.62,0,0,0-1.3776-4.9841,9.12,9.12,0,0,0-1.8409-2.4184,7.2163,7.2163,0,0,1-.3639,1.3987,10.6556,10.6556,0,0,1-1.7506,3.038,10.5133,10.5133,0,0,1-1.7627,1.7085,8.5068,8.5068,0,0,0-2.43,2.9447,8.3821,8.3821,0,0,0,1.6212,9.6975A8.5281,8.5281,0,0,0,28.5709,53.76M25.447,26.8966h0a2.2425,2.2425,0,0,0-2.2395,2.3477l.066,1.44a4.66,4.66,0,0,1-.2156,1.7926A6.5854,6.5854,0,0,1,21.972,34.359a6.9026,6.9026,0,0,1-1.1066,1.0738,12.6743,12.6743,0,0,0-3.5813,4.34,12.5347,12.5347,0,0,0-1.301,5.5366,12.4138,12.4138,0,0,0,3.6978,8.85A12.68,12.68,0,0,0,33.4586,56.833a12.5771,12.5771,0,0,0,6.7066-6.644,12.4464,12.4464,0,0,0-3.0488-14.0536l-.8738-.8017a2.2426,2.2426,0,0,0-2.6744-.2645,18.8994,18.8994,0,0,0-.9494-2.0573,12.6909,12.6909,0,0,0-4.7941-5.0738L26.58,27.2059a2.23,2.23,0,0,0-1.1333-.3093ZM28.5709,51.76a6.5458,6.5458,0,0,1-4.6383-1.8993,6.3822,6.3822,0,0,1-1.2381-7.386,6.4905,6.4905,0,0,1,1.8575-2.2489,12.53,12.53,0,0,0,2.0949-2.0312,12.7653,12.7653,0,0,0,1.057-1.4963,6.794,6.794,0,0,1,.73,3.072,4.2246,4.2246,0,0,0,4.209,4.4942q.1209,0,.2423-.007a4.1536,4.1536,0,0,0,2.0016-.6308,6.3841,6.3841,0,0,1-1.6775,6.234A6.5458,6.5458,0,0,1,28.5709,51.76Z"/></g></g></svg>