<svg xmlns="http://www.w3.org/2000/svg" width="20.043" height="24.669" viewBox="0 0 20.043 24.669">
<style>
	path {
		fill: #fff;
	}
</style>
                                    <g transform="translate(-9.375 100)">
                                        <path d="M38.227-42.249a.769.769,0,0,1-.545-.225L34.6-45.558a.769.769,0,0,1,0-1.09.769.769,0,0,1,1.09,0l2.539,2.538,2.538-2.538a.769.769,0,0,1,1.09,0,.769.769,0,0,1,0,1.09l-3.084,3.084a.765.765,0,0,1-.544.225Z" transform="translate(-18.831 -40.02)"></path>
                                        <path d="M47.646-56.374a.771.771,0,0,1-.771-.771v-7.709a.771.771,0,0,1,.771-.771.771.771,0,0,1,.771.771v7.709A.771.771,0,0,1,47.646-56.374Z" transform="translate(-28.25 -25.895)"></path>
                                        <path d="M38.147-20.333H28.9a.771.771,0,0,1-.771-.771.771.771,0,0,1,.771-.771h9.251a.771.771,0,0,1,.771.771A.771.771,0,0,1,38.147-20.333Z" transform="translate(-14.125 -58.852)"></path>
                                        <path d="M27.44-75.331H11.354A1.957,1.957,0,0,1,9.375-77.26V-93.1a2.564,2.564,0,0,1,.746-1.8l4.356-4.356a2.526,2.526,0,0,1,1.8-.746H27.439a1.956,1.956,0,0,1,1.978,1.928v20.812a1.955,1.955,0,0,1-1.977,1.928ZM16.277-98.458a1,1,0,0,0-.71.294L11.21-93.808a1.012,1.012,0,0,0-.294.71v15.836a.416.416,0,0,0,.437.388H27.44a.414.414,0,0,0,.437-.386V-98.072a.414.414,0,0,0-.437-.386Z" transform="translate(0)"></path>
                                        <path d="M22.218-85.229h-2.7A.771.771,0,0,1,18.749-86a.771.771,0,0,1,.771-.771h2.7a.385.385,0,0,0,.385-.385v-2.7a.771.771,0,0,1,.771-.771.771.771,0,0,1,.771.771v2.7A1.93,1.93,0,0,1,22.218-85.229Z" transform="translate(-7.062 -7.062)"></path>
                                    </g>
                                </svg>