<svg xmlns="http://www.w3.org/2000/svg" width="194.177" height="36.467" viewBox="0 0 194.177 36.467">
    <defs>
        <style>.svg-logo-grey {
            fill: #69a93a;
            }</style>
    </defs>
    <path class="svg-logo-grey" d="M229.06,50.054c-4.754,0-7.18,3.661-7.18,9.172,0,5.207,2.623,9.118,7.18,9.118,5.154,0,7.086-4.613,7.086-9.118,0-4.71-2.428-9.172-7.086-9.172M216.429,36.382h5.649V49.606h.1a9.3,9.3,0,0,1,7.63-4.057c8.076,0,11.988,6.212,11.988,13.775,0,6.968-3.467,13.525-11.048,13.525-3.467,0-7.185-.847-8.866-4.257h-.1v3.56h-5.35Z" transform="translate(-109.131 -36.382)"></path>
    <path class="svg-logo-grey" d="M264.272,59.406c0-4.457-2.229-9.118-7.285-9.118s-7.281,4.661-7.281,9.118c0,4.51,2.23,9.171,7.281,9.171s7.285-4.661,7.285-9.171m-20.214,0c0-7.915,4.705-13.624,12.929-13.624s12.931,5.709,12.931,13.624c0,7.966-4.708,13.676-12.931,13.676s-12.929-5.71-12.929-13.676" transform="translate(-109.816 -36.615)"></path>
    <path class="svg-logo-grey" d="M273.518,46.251h5.645v25.9h-5.645Zm0-9.869h5.645v5.407h-5.645Z" transform="translate(-110.547 -36.382)"></path>
    <path class="svg-logo-grey" d="M287.8,64.067c.3,3.3,2.772,4.51,5.793,4.51,2.131,0,5.848-.453,5.7-3.408-.149-3-4.26-3.356-8.371-4.306-4.159-.9-8.224-2.409-8.224-7.666,0-5.665,6.044-7.415,10.7-7.415,5.251,0,10.01,2.2,10.7,7.962h-5.9c-.493-2.706-2.724-3.456-5.2-3.456-1.634,0-4.656.4-4.656,2.656,0,2.8,4.161,3.209,8.32,4.16,4.112.95,8.274,2.453,8.274,7.562,0,6.163-6.143,8.416-11.442,8.416-6.439,0-11.244-2.9-11.346-9.015Z" transform="translate(-110.761 -36.615)"></path>
    <path d="M124.933,55.149c-.449-3.155-2.73-4.861-5.849-4.861-2.924,0-7.034,1.554-7.034,9.42,0,4.31,1.883,8.869,6.788,8.869,3.27,0,5.547-2.2,6.1-5.915h5.645c-1.041,6.714-5.154,10.42-11.74,10.42-8.028,0-12.435-5.758-12.435-13.375,0-7.816,4.21-13.925,12.633-13.925,5.945,0,11,3,11.543,9.367Z" transform="translate(-106.403 -36.615)"></path>
    <path d="M152.449,57.154c-.2-3.609-2.625-6.866-6.439-6.866-3.912,0-6.588,3.009-6.736,6.866Zm-13.175,3.758c0,4.057,2.178,7.665,6.886,7.665,3.271,0,5.252-1.453,6.241-4.31h5.349c-1.237,5.661-5.993,8.815-11.59,8.815-8.026,0-12.534-5.66-12.534-13.623,0-7.363,4.756-13.677,12.384-13.677,8.075,0,13.032,7.363,12.091,15.13Z" transform="translate(-107.078 -36.615)"></path>
    <path d="M179.381,55.149c-.449-3.155-2.727-4.861-5.848-4.861-2.922,0-7.035,1.554-7.035,9.42,0,4.31,1.883,8.869,6.786,8.869,3.269,0,5.55-2.2,6.1-5.915h5.645c-1.038,6.714-5.15,10.42-11.741,10.42-8.023,0-12.433-5.758-12.433-13.375,0-7.816,4.212-13.925,12.63-13.925,5.946,0,11,3,11.544,9.367Z" transform="translate(-107.753 -36.615)"></path>
    <path d="M207.966,59.406c0-4.457-2.229-9.118-7.285-9.118s-7.281,4.661-7.281,9.118c0,4.51,2.23,9.171,7.281,9.171s7.285-4.661,7.285-9.171m-20.214,0c0-7.915,4.705-13.624,12.929-13.624s12.931,5.709,12.931,13.624c0,7.966-4.708,13.676-12.931,13.676s-12.929-5.71-12.929-13.676" transform="translate(-108.42 -36.615)"></path>
</svg>