<svg xmlns="http://www.w3.org/2000/svg" viewBox="0 0 19.2646 13.1164"><defs><style>.cls-1{fill:#69a73a;}</style></defs><title>Asset 4</title><g id="Layer_2" data-name="Layer 2"><g id="Calque_1" data-name="Calque 1"><path class="cls-1" d="M18.8547,0H.41L.4016,0h0A.41.41,0,0,0,0,.41V12.7065a.41.41,0,0,0,.41.41H18.8547a.41.41,0,0,0,.41-.41V.41A.41.41,0,0,0,18.8547,0Zm-.9894.82L12.4169,6.2682l0,0L9.6323,9.0527,6.848,6.2684l0,0L1.3994.82ZM.82,1.3994,5.9786,6.5582.82,11.717Zm.58,10.8972L6.5582,7.1377,9.3426,9.9221a.3792.3792,0,0,0,.58,0l2.7843-2.7843,5.1588,5.1588Zm17.0455-.58L13.2861,6.5582l5.1588-5.1588Z"/></g></g></svg>