<svg xmlns="http://www.w3.org/2000/svg" viewBox="0 0 33.1351 57.3525"><defs><style>.cls-1{fill:none;stroke:#000;stroke-width:1.7933px;}.cls-1,.cls-3{stroke-miterlimit:10;}.cls-2{fill:#fff;}.cls-3{stroke:#fff;stroke-width:0.75px;}</style></defs><title>Asset 9</title><g id="Layer_2" data-name="Layer 2"><g id="Calque_1" data-name="Calque 1"><rect class="cls-1" x="0.8966" y="0.8966" width="10" height="50"/><path d="M8.77,56.3528a3.764,3.764,0,0,1-3.7041-4.4267L7.612,37.722a3.76,3.76,0,0,1,3.7036-3.0987h1.82a5.49,5.49,0,1,1,10.87,0h1.82A3.76,3.76,0,0,1,29.53,37.722l2.5454,14.2031a3.7635,3.7635,0,0,1-3.7036,4.4277Zm18.4063-4.7636L24.989,39.386H12.153L9.9655,51.5892ZM18.571,33.1155a.7271.7271,0,1,0,.7271.7266A.7278.7278,0,0,0,18.571,33.1155Z"/><path class="cls-2" d="M18.5709,29.3525a4.4882,4.4882,0,0,1,4.1208,6.2708h3.1342a2.763,2.763,0,0,1,2.72,2.2754L31.0913,52.102a2.7632,2.7632,0,0,1-2.72,3.2505H8.77a2.7629,2.7629,0,0,1-2.72-3.2505L8.5963,37.8987a2.7628,2.7628,0,0,1,2.72-2.2754H14.45a4.4884,4.4884,0,0,1,4.1209-6.2708m0,6.217a1.7271,1.7271,0,1,0-1.7271-1.727,1.729,1.729,0,0,0,1.7271,1.727M8.77,52.59H28.3717L25.8259,38.3863H11.316L8.77,52.59m9.8007-25.237a6.4981,6.4981,0,0,0-6.4864,6.2708h-.7686a4.7585,4.7585,0,0,0-4.6882,3.9225L4.0819,51.7491A4.7632,4.7632,0,0,0,8.77,57.3525H28.3716A4.7632,4.7632,0,0,0,33.06,51.7492L30.5141,37.5458a4.7585,4.7585,0,0,0-4.6882-3.9225h-.7687a6.4979,6.4979,0,0,0-6.4863-6.2708ZM12.9894,40.3863H24.1525L25.9813,50.59H11.1605l1.8289-10.2032Z"/><path d="M17.1965,50.5882a1.4165,1.4165,0,0,1-1.2183-.6992l-.7812-1.334v.3965a1.636,1.636,0,1,1-3.272,0V43.9241a1.6361,1.6361,0,0,1,3.232-.3613l.7514-.8184a1.418,1.418,0,0,1,1.04-.457h.5595a1.4118,1.4118,0,0,1,1.0162,2.3916l-1.146,1.1855,1.6538,2.543a1.4119,1.4119,0,0,1-1.1831,2.1807Z"/><path class="cls-2" d="M17.5074,43.2876a.4116.4116,0,0,1,.2959.6977l-1.6979,1.7562,2.0877,3.2106a.4115.4115,0,0,1-.3449.6358h-.6517a.4115.4115,0,0,1-.3552-.2035l-1.6128-2.7533L14.1971,47.684v1.2679a.6361.6361,0,0,1-1.2721,0V43.9238a.6361.6361,0,1,1,1.2721,0v2.1616l2.4479-2.6647a.4122.4122,0,0,1,.3031-.1331h.5593m0-2h-.5593a2.4193,2.4193,0,0,0-1.6511.654,2.6346,2.6346,0,0,0-4.372,1.9822v5.0281a2.6349,2.6349,0,0,0,4.501,1.8613,2.4225,2.4225,0,0,0,1.7705.7747h.6517a2.4115,2.4115,0,0,0,2.021-3.727L18.65,45.9865l.5908-.6111a2.4116,2.4116,0,0,0-1.7338-4.0878Z"/><path d="M21.7824,50.6956a4.4475,4.4475,0,0,1-2.2148-.5439,3.6325,3.6325,0,0,1-1.5146-1.6241,4.8375,4.8375,0,0,1-.4683-2.1113,4.6335,4.6335,0,0,1,.5322-2.2236,3.7707,3.7707,0,0,1,1.6314-1.5879,4.2524,4.2524,0,0,1,1.9653-.4248,3.9841,3.9841,0,0,1,2.4307.69,3.1554,3.1554,0,0,1,.7055.7275,1.6424,1.6424,0,0,1,.1734,1.5674,1.7316,1.7316,0,0,1-.1573.2949,1.41,1.41,0,0,1,.6109,1.1612v1.9121a1.4065,1.4065,0,0,1-.53,1.1035,4.7783,4.7783,0,0,1-1.2661.6973A5.2467,5.2467,0,0,1,21.7824,50.6956Zm-.0688-5.4277a.7272.7272,0,0,0-.5942.21.99.99,0,0,0-.2032.54,1.5381,1.5381,0,0,1,.9126-.7442A1.0573,1.0573,0,0,0,21.7136,45.2679Z"/><path class="cls-2" d="M21.7135,43.18a3.01,3.01,0,0,1,1.8329.4922,2.148,2.148,0,0,1,.4833.497.6494.6494,0,0,1-.4131,1.0089l-.0016,0a.6284.6284,0,0,1-.6481-.2833,1.2947,1.2947,0,0,0-.3359-.359,1.5139,1.5139,0,0,0-.9176-.2686,1.724,1.724,0,0,0-1.3258.5286,2.2268,2.2268,0,0,0-.4921,1.5686,2.4664,2.4664,0,0,0,.4986,1.6826,1.6646,1.6646,0,0,0,1.3065.5608,2.1905,2.1905,0,0,0,.8014-.1568,2.76,2.76,0,0,0,.69-.38v-.7995h-.9261a.5308.5308,0,0,1,0-1.0616h1.8a.4118.4118,0,0,1,.4117.4116v1.9122a.4121.4121,0,0,1-.1548.3219,3.8249,3.8249,0,0,1-1.0032.5454,4.2163,4.2163,0,0,1-1.5365.2944,3.4489,3.4489,0,0,1-1.7235-.4147,2.6353,2.6353,0,0,1-1.1044-1.1861,3.8317,3.8317,0,0,1-.37-1.6783,3.6265,3.6265,0,0,1,.4126-1.749,2.7778,2.7778,0,0,1,1.2077-1.1733,3.2594,3.2594,0,0,1,1.5084-.3139m0-2a5.2374,5.2374,0,0,0-2.4276.5376,4.7519,4.7519,0,0,0-2.049,2.0005,5.6172,5.6172,0,0,0-.6521,2.6981,5.8335,5.8335,0,0,0,.566,2.5427,4.61,4.61,0,0,0,1.9251,2.0635,5.4345,5.4345,0,0,0,2.7064.6729,6.23,6.23,0,0,0,2.26-.43,5.7373,5.7373,0,0,0,1.5276-.8471,2.3988,2.3988,0,0,0,.907-1.8848V46.6217a2.402,2.402,0,0,0-.428-1.3695,2.638,2.638,0,0,0-.3775-2.2252,4.1528,4.1528,0,0,0-.9293-.9577,4.9505,4.9505,0,0,0-3.0285-.889Z"/><path class="cls-3" d="M31.0913,52.102,28.5455,37.8988a2.7631,2.7631,0,0,0-2.72-2.2755H22.6917a4.49,4.49,0,1,0-8.2417,0H11.3159a2.7628,2.7628,0,0,0-2.72,2.2755L6.0506,52.102a2.7629,2.7629,0,0,0,2.72,3.2505H28.3716a2.7632,2.7632,0,0,0,2.72-3.2505Zm-12.52-19.9866a1.7271,1.7271,0,1,1-1.7271,1.7271A1.729,1.729,0,0,1,18.5709,32.1154ZM8.77,52.59,11.316,38.3863h14.51L28.3717,52.59Z"/><path d="M16.1054,45.7416l1.6979-1.7564a.4115.4115,0,0,0-.2959-.6975h-.5593a.4115.4115,0,0,0-.3031.1331l-2.4479,2.6646V43.9237a.6361.6361,0,0,0-1.2721,0v5.0282a.6361.6361,0,1,0,1.2721,0V47.684l1.0314-1.0529,1.6128,2.7533a.4116.4116,0,0,0,.3552.2036h.6517a.4116.4116,0,0,0,.3449-.636Z"/><path d="M24.0651,46.21h-1.8a.5308.5308,0,1,0,0,1.0615h.9261v.7995a2.7549,2.7549,0,0,1-.69.38,2.1905,2.1905,0,0,1-.8014.1568,1.6643,1.6643,0,0,1-1.3065-.5608,2.4663,2.4663,0,0,1-.4986-1.6825,2.2269,2.2269,0,0,1,.4921-1.5687,1.724,1.724,0,0,1,1.3258-.5286,1.5139,1.5139,0,0,1,.9176.2686,1.2961,1.2961,0,0,1,.3359.359.6289.6289,0,0,0,.6481.2833l.0016,0A.6494.6494,0,0,0,24.03,44.17a2.1457,2.1457,0,0,0-.4833-.4969,3.0091,3.0091,0,0,0-1.8329-.4922,3.26,3.26,0,0,0-1.5084.3138,2.7789,2.7789,0,0,0-1.2077,1.1733,3.6265,3.6265,0,0,0-.4126,1.749,3.8317,3.8317,0,0,0,.37,1.6783,2.6363,2.6363,0,0,0,1.1044,1.1861,3.4488,3.4488,0,0,0,1.7235.4146,4.2161,4.2161,0,0,0,1.5365-.2943,3.8278,3.8278,0,0,0,1.0032-.5454.4121.4121,0,0,0,.1548-.3219V46.6217A.4118.4118,0,0,0,24.0651,46.21Z"/></g></g></svg>