<svg xmlns="http://www.w3.org/2000/svg" viewBox="0 0 35.4137 55.4449"><defs><style>.cls-1{fill:none;stroke:#000;stroke-miterlimit:10;stroke-width:1.7933px;}.cls-2{fill:#fff;}</style></defs><title>Asset 10</title><g id="Layer_2" data-name="Layer 2"><g id="Calque_1" data-name="Calque 1"><line class="cls-1" x1="4.8248" y1="50" x2="4.8248"/><line class="cls-1" x1="10" y1="50" x2="10"/><line class="cls-1" x1="15.1752" y1="50" x2="15.1752"/><line class="cls-1" x1="20" y1="12.9999" y2="12.9999"/><line class="cls-1" x1="20" y1="5.772" y2="5.772"/><line class="cls-1" x1="20" y1="29.8781" y2="29.8781"/><path d="M13.6376,54.4449V26.1773H34.4139V54.4449Zm17.72-3.1211V29.2974H16.7587V51.3238Z"/><path class="cls-2" d="M33.4137,27.1768V53.4449H14.6378V27.1768H33.4137M15.7587,52.324H32.3572V28.2977H15.7587V52.324m19.655-27.1472H12.6378V55.4449H35.4137V25.1768Zm-17.655,5.1209H30.3572V50.324H17.7587V30.2977Z"/><path d="M16.7118,36.9546V29.6373H31.3505v7.3173Zm12.5713-2.1152V31.7583H18.828v3.0811Z"/><path class="cls-2" d="M30.85,30.1373v6.3176H17.212V30.1373H30.85M18.3275,35.3394H29.783V31.2581H18.3275v4.0813M31.85,29.1373H16.212v8.3176H31.8449l.0053-1V29.1373ZM19.3275,32.2581H28.783v2.0813H19.3275V32.2581Z"/><rect x="16.7694" y="38.4156" width="4.457" height="3.1152"/><path class="cls-2" d="M20.2261,39.4152v1.1155H17.77V39.4152h2.4563m2-2H15.77v5.1155h6.4563V37.4152Z"/><rect x="21.8007" y="38.4156" width="4.4561" height="3.1152"/><path class="cls-2" d="M25.2565,39.4152v1.1155H22.8V39.4152h2.4562m2-2H20.8v5.1155h6.4562V37.4152Z"/><rect x="26.8309" y="38.4156" width="4.4561" height="3.1152"/><path class="cls-2" d="M30.2871,39.4152v1.1155H27.8308V39.4152h2.4563m2-2H25.8308v5.1155h6.4563V37.4152Z"/><rect x="16.7694" y="41.6597" width="4.457" height="3.1152"/><path class="cls-2" d="M20.2261,42.66v1.1155H17.77V42.66h2.4563m2-2H15.77v5.1155h6.4563V40.66Z"/><rect x="21.8007" y="41.6597" width="4.4561" height="3.1152"/><path class="cls-2" d="M25.2565,42.66v1.1155H22.8V42.66h2.4562m2-2H20.8v5.1155h6.4562V40.66Z"/><rect x="26.8309" y="41.6597" width="4.4561" height="3.1152"/><path class="cls-2" d="M30.2871,42.66v1.1155H27.8308V42.66h2.4563m2-2H25.8308v5.1155h6.4563V40.66Z"/><rect x="16.7694" y="44.9527" width="4.457" height="3.1152"/><path class="cls-2" d="M20.2261,45.9528v1.1155H17.77V45.9528h2.4563m2-2H15.77v5.1155h6.4563V43.9528Z"/><rect x="21.8007" y="44.9527" width="4.4561" height="3.1152"/><path class="cls-2" d="M25.2565,45.9528v1.1155H22.8V45.9528h2.4562m2-2H20.8v5.1155h6.4562V43.9528Z"/><rect x="16.7694" y="48.2505" width="4.457" height="3.1162"/><path class="cls-2" d="M20.2261,49.251v1.1155H17.77V49.251h2.4563m2-2H15.77v5.1155h6.4563V47.251Z"/><rect x="21.8007" y="48.2505" width="4.4561" height="3.1162"/><path class="cls-2" d="M25.2565,49.251v1.1155H22.8V49.251h2.4562m2-2H20.8v5.1155h6.4562V47.251Z"/><rect x="27.5546" y="44.733" width="3.1162" height="6.6387"/><path class="cls-2" d="M29.67,45.7328v4.6391H28.5548V45.7328H29.67m2-2H26.5548v8.6391H31.67V43.7328Z"/><path d="M14.5624,53.52V27.1021H33.4891V53.52Zm17.72-1.2715V28.3726H15.8339v23.876Z"/><path d="M33.4137,27.1768V53.4449H14.6378V27.1768H33.4137M15.7587,52.324H32.3572V28.2977H15.7587V52.324m17.805-25.2972H14.4877V53.5949h19.076V27.0268Zm-17.655,1.4209H32.2072V52.174H15.9087V28.4477Z"/><path d="M17.1366,36.53V30.0621H30.9257V36.53Zm12.5713-1.2656V31.3335H18.4032v3.9307Z"/><path d="M30.85,30.1373v6.3176H17.212V30.1373H30.85M18.3275,35.3394H29.783V31.2581H18.3275v4.0813M31,29.9872H17.062v6.6177H30.9949l.0053-.15V29.9872ZM18.4775,31.4081H29.6329v3.7813H18.4775V31.4081Z"/><rect x="17.6942" y="39.3404" width="2.6074" height="1.2656"/><path d="M20.2261,39.4152v1.1155H17.77V39.4152h2.4563m.15-.15H17.62v1.4155h2.7563V39.2652Z"/><rect x="22.7255" y="39.3404" width="2.6064" height="1.2656"/><path d="M25.2565,39.4152v1.1155H22.8V39.4152h2.4562m.15-.15H22.65v1.4155h2.7563V39.2652Z"/><rect x="27.7557" y="39.3404" width="2.6064" height="1.2656"/><path d="M30.2871,39.4152v1.1155H27.8308V39.4152h2.4563m.15-.15H27.6808v1.4155h2.7563V39.2652Z"/><rect x="17.6942" y="42.5845" width="2.6074" height="1.2656"/><path d="M20.2261,42.66v1.1155H17.77V42.66h2.4563m.15-.15H17.62v1.4155h2.7563V42.51Z"/><rect x="22.7255" y="42.5845" width="2.6064" height="1.2656"/><path d="M25.2565,42.66v1.1155H22.8V42.66h2.4562m.15-.15H22.65v1.4155h2.7563V42.51Z"/><rect x="27.7557" y="42.5845" width="2.6064" height="1.2656"/><path d="M30.2871,42.66v1.1155H27.8308V42.66h2.4563m.15-.15H27.6808v1.4155h2.7563V42.51Z"/><rect x="17.6942" y="45.8775" width="2.6074" height="1.2656"/><path d="M20.2261,45.9528v1.1155H17.77V45.9528h2.4563m.15-.15H17.62v1.4155h2.7563V45.8028Z"/><rect x="22.7255" y="45.8775" width="2.6064" height="1.2656"/><path d="M25.2565,45.9528v1.1155H22.8V45.9528h2.4562m.15-.15H22.65v1.4155h2.7563V45.8028Z"/><rect x="17.6942" y="49.1753" width="2.6074" height="1.2666"/><path d="M20.2261,49.251v1.1155H17.77V49.251h2.4563m.15-.15H17.62v1.4155h2.7563V49.101Z"/><rect x="22.7255" y="49.1753" width="2.6064" height="1.2666"/><path d="M25.2565,49.251v1.1155H22.8V49.251h2.4562m.15-.15H22.65v1.4155h2.7563V49.101Z"/><rect x="28.4794" y="45.6578" width="1.2666" height="4.7891"/><path d="M29.67,45.7328v4.6391H28.5548V45.7328H29.67m.15-.15H28.4048v4.9391H29.82V45.5828Z"/></g></g></svg>