<svg xmlns="http://www.w3.org/2000/svg" viewBox="0 0 61.6726 35.7857"><defs><style>.cls-1{fill:none;stroke:#000;stroke-miterlimit:10;stroke-width:1.7933px;}.cls-2{fill:#fff;}</style></defs><title>Asset 13</title><g id="Layer_2" data-name="Layer 2"><g id="Calque_1" data-name="Calque 1"><rect class="cls-1" x="20.8966" y="0.6517" width="10" height="50" transform="translate(51.5483 -0.245) rotate(90)"/><line class="cls-1" x1="24.7898" y1="20.6499" x2="15.0398" y2="10.8999"/><polyline class="cls-1" points="10.65 20.65 0.9 10.9 0.897 10.897 0.897 0.897 50.897 0.897 50.897 10.897 41.15 20.65"/><line class="cls-1" x1="36.7598" y1="10.8999" x2="27.0098" y2="20.6499"/><line class="cls-1" x1="0.8998" y1="10.8999" x2="50.8966" y2="10.8999"/><path d="M39.8967,34.7853V6.5177H60.6721V34.7853Zm17.72-3.12V9.6388H43.0178V31.6652Z"/><path class="cls-2" d="M59.6726,7.5176V33.7857H40.8966V7.5176h18.776M42.0175,32.6648H58.616V8.6386H42.0175V32.6648M61.6726,5.5176H38.8966V35.7857h22.776V5.5176Zm-17.6551,5.121H56.616V30.6648H44.0175V10.6386Z"/><path d="M42.971,17.296V9.9777H57.6087V17.296ZM55.5422,15.18v-3.081H45.0862V15.18Z"/><path class="cls-2" d="M57.1091,10.478v6.3177H43.4709V10.478H57.1091M44.5864,15.68H56.0418V11.5989H44.5864V15.68M58.1091,9.478H42.4709v8.3177H58.1037l.0054-1V9.478ZM45.5864,12.5989h9.4554V14.68H45.5864V12.5989Z"/><rect x="43.0286" y="18.756" width="4.4561" height="3.1152"/><path class="cls-2" d="M46.4849,19.756v1.1156H44.0286V19.756h2.4563m2-2H42.0286v5.1156h6.4563V17.756Z"/><rect x="48.0588" y="18.756" width="4.457" height="3.1152"/><path class="cls-2" d="M51.5154,19.756v1.1156H49.0592V19.756h2.4562m2-2H47.0592v5.1156h6.4562V17.756Z"/><rect x="53.0901" y="18.756" width="4.4561" height="3.1152"/><path class="cls-2" d="M56.5459,19.756v1.1156H54.09V19.756h2.4562m2-2H52.09v5.1156h6.4562V17.756Z"/><rect x="43.0286" y="22.0011" width="4.4561" height="3.1152"/><path class="cls-2" d="M46.4849,23.0006v1.1156H44.0286V23.0006h2.4563m2-2H42.0286v5.1156h6.4563V21.0006Z"/><rect x="48.0588" y="22.0011" width="4.457" height="3.1152"/><path class="cls-2" d="M51.5154,23.0006v1.1156H49.0592V23.0006h2.4562m2-2H47.0592v5.1156h6.4562V21.0006Z"/><rect x="53.0901" y="22.0011" width="4.4561" height="3.1152"/><path class="cls-2" d="M56.5459,23.0006v1.1156H54.09V23.0006h2.4562m2-2H52.09v5.1156h6.4562V21.0006Z"/><rect x="43.0286" y="25.2931" width="4.4561" height="3.1162"/><path class="cls-2" d="M46.4849,26.2936v1.1155H44.0286V26.2936h2.4563m2-2H42.0286v5.1155h6.4563V24.2936Z"/><rect x="48.0588" y="25.2931" width="4.457" height="3.1162"/><path class="cls-2" d="M51.5154,26.2936v1.1155H49.0592V26.2936h2.4562m2-2H47.0592v5.1155h6.4562V24.2936Z"/><rect x="43.0286" y="28.5919" width="4.4561" height="3.1152"/><path class="cls-2" d="M46.4849,29.5918v1.1155H44.0286V29.5918h2.4563m2-2H42.0286v5.1155h6.4563V27.5918Z"/><rect x="48.0588" y="28.5919" width="4.457" height="3.1152"/><path class="cls-2" d="M51.5154,29.5918v1.1155H49.0592V29.5918h2.4562m2-2H47.0592v5.1155h6.4562V27.5918Z"/><rect x="53.8137" y="25.0734" width="3.1152" height="6.6396"/><path class="cls-2" d="M55.9292,26.0736v4.6391H54.8137V26.0736h1.1155m2-2H52.8137v8.6391h5.1155V24.0736Z"/><path d="M40.8215,33.8605V7.4425H59.7473v26.418Zm17.72-1.27V8.714H42.093V32.59Z"/><path d="M59.6726,7.5176V33.7857H40.8966V7.5176h18.776M42.0175,32.6648H58.616V8.6386H42.0175V32.6648M59.8226,7.3676H40.7467V33.9357H59.8226V7.3676ZM42.1675,8.7886H58.466V32.5148H42.1675V8.7886Z"/><path d="M43.3958,16.8712V10.4025h13.788v6.4687Zm12.5713-1.2666V11.674H44.6614v3.9306Z"/><path d="M57.1091,10.478v6.3177H43.4709V10.478H57.1091M44.5864,15.68H56.0418V11.5989H44.5864V15.68M57.259,10.328H43.3209v6.6177H57.2537l.0053-.15V10.328ZM44.7364,11.7489H55.8918V15.53H44.7364V11.7489Z"/><rect x="43.9534" y="19.6808" width="2.6064" height="1.2656"/><path d="M46.4849,19.756v1.1156H44.0286V19.756h2.4563m.15-.15H43.8786v1.4156h2.7563V19.606Z"/><rect x="48.9837" y="19.6808" width="2.6074" height="1.2656"/><path d="M51.5154,19.756v1.1156H49.0592V19.756h2.4562m.15-.15H48.9092v1.4156h2.7562V19.606Z"/><rect x="54.0149" y="19.6808" width="2.6064" height="1.2656"/><path d="M56.5459,19.756v1.1156H54.09V19.756h2.4562m.15-.15H53.94v1.4156h2.7562V19.606Z"/><rect x="43.9534" y="22.9259" width="2.6064" height="1.2656"/><path d="M46.4849,23.0006v1.1156H44.0286V23.0006h2.4563m.15-.15H43.8786v1.4156h2.7563V22.8506Z"/><rect x="48.9837" y="22.9259" width="2.6074" height="1.2656"/><path d="M51.5154,23.0006v1.1156H49.0592V23.0006h2.4562m.15-.15H48.9092v1.4156h2.7562V22.8506Z"/><rect x="54.0149" y="22.9259" width="2.6064" height="1.2656"/><path d="M56.5459,23.0006v1.1156H54.09V23.0006h2.4562m.15-.15H53.94v1.4156h2.7562V22.8506Z"/><rect x="43.9534" y="26.2179" width="2.6064" height="1.2666"/><path d="M46.4849,26.2936v1.1155H44.0286V26.2936h2.4563m.15-.15H43.8786v1.4155h2.7563V26.1436Z"/><rect x="48.9837" y="26.2179" width="2.6074" height="1.2666"/><path d="M51.5154,26.2936v1.1155H49.0592V26.2936h2.4562m.15-.15H48.9092v1.4155h2.7562V26.1436Z"/><rect x="43.9534" y="29.5167" width="2.6064" height="1.2656"/><path d="M46.4849,29.5918v1.1155H44.0286V29.5918h2.4563m.15-.15H43.8786v1.4155h2.7563V29.4418Z"/><rect x="48.9837" y="29.5167" width="2.6074" height="1.2656"/><path d="M51.5154,29.5918v1.1155H49.0592V29.5918h2.4562m.15-.15H48.9092v1.4155h2.7562V29.4418Z"/><rect x="54.7385" y="25.9982" width="1.2656" height="4.79"/><path d="M55.9292,26.0736v4.6391H54.8137V26.0736h1.1155m.15-.15H54.6637v4.9391h1.4155V25.9236Z"/></g></g></svg>