<svg xmlns="http://www.w3.org/2000/svg" viewBox="0 0 42.2846 59.1884"><defs><style>.cls-1{fill:none;stroke:#000;stroke-miterlimit:10;stroke-width:1.7933px;}.cls-2{fill:#fff;}</style></defs><title>Asset 12</title><g id="Layer_2" data-name="Layer 2"><g id="Calque_1" data-name="Calque 1"><rect class="cls-1" x="0.8966" y="0.8966" width="10" height="50"/><rect class="cls-1" x="10.8966" y="0.8966" width="10" height="50"/><rect class="cls-1" x="20.8966" y="0.8966" width="10" height="50"/><path d="M20.509,58.1886V29.92H41.2844V58.1886Zm17.7188-3.1211V33.0411H23.6291V55.0675Z"/><path class="cls-2" d="M40.2846,30.92v26.268H21.5087V30.92H40.2846M22.63,56.0676H39.2281V32.0412H22.63V56.0676M42.2846,28.92H19.5087v30.268H42.2846V28.92ZM24.63,34.0412H37.2281V54.0676H24.63V34.0412Z"/><path d="M23.5832,40.6983V33.3809H38.2209v7.3174Zm12.57-2.1152V35.502H25.6985v3.0811Z"/><path class="cls-2" d="M37.7211,33.8807v6.3176H24.0829V33.8807H37.7211M25.1984,39.0828H36.6538V35.0017H25.1984v4.0811m13.5227-6.2021H23.0829v8.3176H38.7157l.0054-1V32.8807Zm-12.5227,3.121h9.4554v2.0811H26.1984V36.0017Z"/><rect x="23.6409" y="42.1583" width="4.4561" height="3.1162"/><path class="cls-2" d="M27.0969,43.1588v1.1154H24.6407V43.1588h2.4562m2-2H22.6407v5.1154h6.4562V41.1588Z"/><rect x="28.6711" y="42.1583" width="4.4561" height="3.1162"/><path class="cls-2" d="M32.1274,43.1588v1.1154H29.6712V43.1588h2.4562m2-2H27.6712v5.1154h6.4562V41.1588Z"/><rect x="33.7014" y="42.1583" width="4.457" height="3.1162"/><path class="cls-2" d="M37.158,43.1588v1.1154H34.7017V43.1588H37.158m2-2H32.7017v5.1154H39.158V41.1588Z"/><rect x="23.6409" y="45.4034" width="4.4561" height="3.1152"/><path class="cls-2" d="M27.0969,46.4034v1.1155H24.6407V46.4034h2.4562m2-2H22.6407v5.1155h6.4562V44.4034Z"/><rect x="28.6711" y="45.4034" width="4.4561" height="3.1152"/><path class="cls-2" d="M32.1274,46.4034v1.1155H29.6712V46.4034h2.4562m2-2H27.6712v5.1155h6.4562V44.4034Z"/><rect x="33.7014" y="45.4034" width="4.457" height="3.1152"/><path class="cls-2" d="M37.158,46.4034v1.1155H34.7017V46.4034H37.158m2-2H32.7017v5.1155H39.158V44.4034Z"/><rect x="23.6409" y="48.6964" width="4.4561" height="3.1152"/><path class="cls-2" d="M27.0969,49.6962v1.1155H24.6407V49.6962h2.4562m2-2H22.6407v5.1155h6.4562V47.6962Z"/><rect x="28.6711" y="48.6964" width="4.4561" height="3.1152"/><path class="cls-2" d="M32.1274,49.6962v1.1155H29.6712V49.6962h2.4562m2-2H27.6712v5.1155h6.4562V47.6962Z"/><rect x="23.6409" y="51.9942" width="4.4561" height="3.1162"/><path class="cls-2" d="M27.0969,52.9946V54.11H24.6407V52.9946h2.4562m2-2H22.6407V56.11h6.4562V50.9946Z"/><rect x="28.6711" y="51.9942" width="4.4561" height="3.1162"/><path class="cls-2" d="M32.1274,52.9946V54.11H29.6712V52.9946h2.4562m2-2H27.6712V56.11h6.4562V50.9946Z"/><rect x="34.426" y="48.4766" width="3.1152" height="6.6387"/><path class="cls-2" d="M36.5412,49.4764v4.639H35.4257v-4.639h1.1155m2-2H33.4257v8.639h5.1155v-8.639Z"/><path d="M21.4338,57.2637V30.8448H40.36V57.2637Zm17.7188-1.2714V32.1163H22.7043v23.876Z"/><path d="M40.2846,30.92v26.268H21.5087V30.92H40.2846M22.63,56.0676H39.2281V32.0412H22.63V56.0676M40.4346,30.77H21.3587V57.3385H40.4346V30.77ZM22.78,32.1912H39.0781V55.9176H22.78V32.1912Z"/><path d="M24.0081,40.2735V33.8057h13.788v6.4678Zm12.57-1.2656V35.0772H25.2737v3.9307Z"/><path d="M37.7211,33.8807v6.3176H24.0829V33.8807H37.7211M25.1984,39.0828H36.6538V35.0017H25.1984v4.0811m12.6727-5.3521H23.9329v6.6176H37.8657l.0054-.15V33.7307Zm-12.5227,1.421H36.5038v3.7811H25.3484V35.1517Z"/><rect x="24.5657" y="43.0831" width="2.6064" height="1.2666"/><path d="M27.0969,43.1588v1.1154H24.6407V43.1588h2.4562m.15-.15H24.4907v1.4156h2.7562V43.0087Z"/><rect x="29.5959" y="43.0831" width="2.6064" height="1.2666"/><path d="M32.1274,43.1588v1.1154H29.6712V43.1588h2.4562m.15-.15H29.5212v1.4156h2.7562V43.0087Z"/><rect x="34.6262" y="43.0831" width="2.6074" height="1.2666"/><path d="M37.158,43.1588v1.1154H34.7017V43.1588H37.158m.15-.15H34.5517v1.4156h2.7562V43.0087Z"/><rect x="24.5657" y="46.3282" width="2.6064" height="1.2656"/><path d="M27.0969,46.4034v1.1155H24.6407V46.4034h2.4562m.15-.15H24.4907v1.4155h2.7562V46.2534Z"/><rect x="29.5959" y="46.3282" width="2.6064" height="1.2656"/><path d="M32.1274,46.4034v1.1155H29.6712V46.4034h2.4562m.15-.15H29.5212v1.4155h2.7562V46.2534Z"/><rect x="34.6262" y="46.3282" width="2.6074" height="1.2656"/><path d="M37.158,46.4034v1.1155H34.7017V46.4034H37.158m.15-.15H34.5517v1.4155h2.7562V46.2534Z"/><rect x="24.5657" y="49.6212" width="2.6064" height="1.2656"/><path d="M27.0969,49.6962v1.1155H24.6407V49.6962h2.4562m.15-.15H24.4907v1.4155h2.7562V49.5462Z"/><rect x="29.5959" y="49.6212" width="2.6064" height="1.2656"/><path d="M32.1274,49.6962v1.1155H29.6712V49.6962h2.4562m.15-.15H29.5212v1.4155h2.7562V49.5462Z"/><rect x="24.5657" y="52.919" width="2.6064" height="1.2666"/><path d="M27.0969,52.9946V54.11H24.6407V52.9946h2.4562m.15-.15H24.4907V54.26h2.7562V52.8446Z"/><rect x="29.5959" y="52.919" width="2.6064" height="1.2666"/><path d="M32.1274,52.9946V54.11H29.6712V52.9946h2.4562m.15-.15H29.5212V54.26h2.7562V52.8446Z"/><rect x="35.3508" y="49.4014" width="1.2656" height="4.7891"/><path d="M36.5412,49.4764v4.639H35.4257v-4.639h1.1155m.15-.15H35.2757v4.9391h1.4155V49.3264Z"/></g></g></svg>